<?xml version="1.0" encoding="utf-8"?>
<!-- Generator: Adobe Illustrator 23.0.1, SVG Export Plug-In . SVG Version: 6.00 Build 0)  -->
<svg version="1.1" id="Layer_1" xmlns="http://www.w3.org/2000/svg" xmlns:xlink="http://www.w3.org/1999/xlink" x="0px" y="0px"
	 viewBox="0 0 400 400" style="enable-background:new 0 0 400 400;" xml:space="preserve">
<path d="M251.7,6.7C235.2,2.3,217.8,0,200,0"/>
<path d="M299.8,26.6c-15-8.6-31.1-15.4-48.2-19.9"/>
<path d="M341.2,58.4c-12.3-12.2-26.2-23-41.4-31.7"/>
<path d="M373,99.7c-8.8-15.1-19.5-29-31.8-41.3"/>
<path d="M393.1,147.8c-4.6-17-11.4-33.2-20.1-48.2"/>
<path d="M400,199.6c0-17.9-2.4-35.3-6.9-51.8"/>
<path d="M393.4,251.4c4.3-16.4,6.6-33.6,6.6-51.4c0-0.2,0-0.2,0-0.4"/>
<path d="M373.4,299.7c8.6-15,15.4-31.2,19.9-48.3"/>
<path d="M341.6,341.2c12.3-12.3,23-26.3,31.8-41.5"/>
<path d="M300.2,373.1c15.2-8.8,29.1-19.5,41.4-31.9"/>
<path d="M251.8,393.2c17.1-4.6,33.4-11.4,48.3-20.1"/>
<path d="M200,400c17.9,0,35.4-2.4,51.8-6.8"/>
<path d="M148.2,393.2c16.6,4.4,33.9,6.8,51.8,6.8"/>
<path d="M99.8,373.1c15,8.7,31.2,15.5,48.3,20.1"/>
<path d="M58.4,341.2c12.3,12.3,26.2,23.1,41.4,31.9"/>
<path d="M26.6,299.7c8.8,15.2,19.4,29.1,31.8,41.5"/>
<path d="M6.6,251.4c4.6,17.1,11.3,33.4,19.9,48.3"/>
<path d="M0,199.6c0,0.2,0,0.2,0,0.4c0,17.8,2.3,35,6.6,51.4"/>
<path d="M6.9,147.8c-4.5,16.5-6.8,33.8-6.9,51.8"/>
<path d="M27,99.7c-8.6,15-15.4,31.1-20.1,48.2"/>
<path d="M58.8,58.4C46.5,70.7,35.8,84.6,27,99.7"/>
<path d="M100.2,26.6C85,35.4,71.2,46,58.8,58.4"/>
<path d="M148.3,6.7c-17,4.6-33.2,11.3-48.2,19.9"/>
<path d="M200,0c-17.8,0-35.2,2.3-51.7,6.7"/>
<circle cx="200" cy="199.6" r="0"/>
</svg>
