<svg class="wheel-svg" version="1.1" id="Layer_1" xmlns="http://www.w3.org/2000/svg" xmlns:xlink="http://www.w3.org/1999/xlink" x="0px" y="0px"
	 viewBox="0 0 500 500" style="enable-background:new 0 0 500 500;" xml:space="preserve">
	<path class="st0" d="M33.2,374.6c11,19,24.3,36.4,39.7,51.9"/>
	<path class="st0" d="M73,426.5c15.4,15.4,32.8,28.9,51.8,39.9"/>
	<path class="st0" d="M8.3,314.2c5.7,21.4,14.1,41.7,24.9,60.4"/>
	<path class="st0" d="M124.8,466.4c18.7,10.9,39,19.4,60.4,25.1"/>
	<path class="st0" d="M8.6,184.8C3,205.4,0.1,227.1,0,249.5"/>
	<path class="st0" d="M0,249.5c0,0.2,0,0.3,0,0.5c0,22.2,2.9,43.7,8.3,64.2"/>
	<path class="st0" d="M466.8,374.6c10.8-18.7,19.2-39,24.9-60.4"/>
	<path class="st0" d="M427,426.5c15.4-15.4,28.8-32.9,39.7-51.9"/>
	<path class="st0" d="M33.7,124.6c-10.8,18.7-19.3,38.9-25.1,60.2"/>
	<path class="st0" d="M375.2,466.4c19-11,36.4-24.4,51.8-39.9"/>
	<path class="st0" d="M250,500c22.4,0,44.2-3,64.8-8.5"/>
	<path class="st0" d="M185.2,491.5c20.7,5.5,42.4,8.5,64.8,8.5"/>
	<path class="st0" d="M314.8,491.5c21.4-5.7,41.7-14.2,60.4-25.1"/>
	<path class="st0" d="M491.4,184.8c-5.7-21.3-14.2-41.5-25.1-60.2"/>
	<path class="st0" d="M466.3,124.6c-11-18.9-24.4-36.3-39.8-51.6"/>
	<path class="st0" d="M500,249.5c0-22.4-3-44.1-8.6-64.7"/>
	<path class="st0" d="M426.5,73c-15.4-15.3-32.8-28.7-51.7-39.6"/>
	<path class="st0" d="M491.7,314.2c5.4-20.5,8.3-42,8.3-64.2c0-0.2,0-0.3,0-0.5"/>
	<path class="st0" d="M374.8,33.3c-18.7-10.8-38.9-19.2-60.2-24.9"/>
	<path class="st0" d="M125.2,33.3C106.2,44.3,88.9,57.6,73.5,73"/>
	<path class="st0" d="M185.4,8.4c-21.3,5.7-41.5,14.1-60.2,24.9"/>
	<path class="st0" d="M73.5,73c-15.4,15.4-28.8,32.7-39.8,51.6"/>
	<path class="st0" d="M314.6,8.4C294,2.9,272.3,0,250,0"/>
	<path class="st0" d="M250,0c-22.3,0-44,2.9-64.6,8.4"/>
</svg>
